<svg version="1.1" viewBox="0.0 0.0 106.7979002624672 107.14960629921259" fill="none" stroke="none" stroke-linecap="square" stroke-miterlimit="10" xmlns:xlink="http://www.w3.org/1999/xlink" xmlns="http://www.w3.org/2000/svg"><clipPath id="p.0"><path d="m0 0l106.7979 0l0 107.149605l-106.7979 0l0 -107.149605z" clip-rule="nonzero"/></clipPath><g clip-path="url(#p.0)"><path fill="#000000" fill-opacity="0.0" d="m0 0l106.7979 0l0 107.149605l-106.7979 0z" fill-rule="evenodd"/><path fill="#6aa84f" d="m0 0l107.65354 0l0 107.65354l-107.65354 0z" fill-rule="evenodd"/><path fill="#000000" fill-opacity="0.0" d="m1.4068241 -34.80315l99.968506 0l0 142.4567l-99.968506 0z" fill-rule="evenodd"/><path fill="#ffffff" d="m38.406826 15.806226l14.796875 -0.265625q9.875 0 9.875 5.187499q0 1.875 -0.546875 2.609375q-0.53125 0.734375 -0.796875 1.140625q-0.265625 0.390625 -1.0625 0.65625q-1.59375 0.53125 -2.671875 0.671875q-1.0625 0.125 -1.46875 0.125q-1.453125 0.265625 -4.921875 0.40625q-3.46875 0.125 -10.078125 0.125q-6.59375 0 -16.187502 -0.53125l0 24.53125l27.187502 0q1.46875 0 2.734375 1.34375q1.265625 1.328125 1.265625 2.921875q0 6.140625 -5.1875 6.140625l-26.000002 0l0.53125 34.92188q0 6.8125 -4.609375 6.8125q-4.59375 0 -5.390625 -6.140625q-0.40625 -2.0 -0.46875 -33.92188q-0.0625 -31.9375 -0.328125 -36.734375q-4.9375 0.53125 -4.9375 -5.609375q0 -1.59375 1.328125 -3.53125q1.34375 -1.937499 2.34375 -2.062499q1.0 -0.140625 2.53125 -0.140625q1.53125 0 7.53125 0.53125q8.265627 0.8125 14.531252 0.8125z" fill-rule="nonzero"/><path fill="#ffffff" d="m71.49865 34.7906q1.921875 0 3.625 1.8125q1.703125 1.8125 1.703125 3.796875q0 1.96875 -1.875 4.0q-1.859375 2.015625 -3.890625 2.015625q-2.015625 0 -3.671875 -1.703125q-1.65625 -1.703125 -1.65625 -4.375q0 -5.125 5.546875 -5.546875q0.109375 0 0.21875 0zm4.484375 55.89063l0.09375 7.46875q0 2.015625 -1.59375 3.359375q-1.59375 1.328125 -3.40625 1.328125q-2.671875 0 -2.78125 -2.671875q-1.390625 -34.015625 -1.390625 -37.64063q0 -3.625 0.328125 -8.859375q0.21875 -1.921875 2.453125 -1.921875q5.65625 0 6.390625 4.59375q0.328125 2.34375 0.328125 3.734375l-0.421875 6.718754l0 23.890625z" fill-rule="nonzero"/><path fill="#ffffff" d="m84.9053 101.94685l-0.09375 -3.25q0 -0.140625 0.109375 -0.234375q0.109375 -0.109375 0.203125 -0.109375q0.265625 0 0.296875 0.21875q0.03125 0.21875 0.03125 0.453125q0.4375 -0.578125 1.078125 -0.578125q1.0 0 1.0 2.265625q0 0.21875 0 0.640625q0 0.40625 -0.046875 0.609375q-0.0625 0.234375 -0.34375 0.234375q-0.203125 0 -0.203125 -0.25l0.015625 -0.453125q0 -0.921875 -0.0625 -1.265625q-0.0625 -0.34375 -0.109375 -0.546875q-0.140625 -0.421875 -0.4375 -0.421875q-0.40625 0 -0.5625 0.28125q-0.1875 0.3125 -0.21875 0.734375q-0.046875 0.75 -0.046875 1.578125q0 0.15625 -0.125 0.265625q-0.125 0.09375 -0.28125 0.09375q-0.203125 0 -0.203125 -0.265625zm3.5065765 -3.484375l0.40625 0q0.140625 0 0.15625 0l0 -1.640625q0 -0.140625 0.125 -0.234375q0.125 -0.09375 0.234375 -0.09375q0.125 0 0.1875 0.078125q0.078125 0.0625 0.0625 0.21875q-0.015625 0.15625 -0.015625 1.65625l0.9375 -0.03125q0.25 0 0.25 0.28125q0 0.21875 -0.125 0.328125q-0.125 0.09375 -0.265625 0.109375q-0.140625 0 -0.28125 0l-0.484375 -0.015625q0 0.328125 0.0625 1.296875q0.078125 0.96875 0.109375 1.265625q0.046875 0.28125 0.015625 0.359375q-0.015625 0.078125 -0.078125 0.109375q-0.109375 0.0625 -0.28125 0.0625q-0.171875 0 -0.21875 -0.203125q-0.15625 -1.046875 -0.203125 -2.875q-0.078125 0 -0.5625 0q-0.46875 0 -0.46875 -0.28125q0 -0.390625 0.4375 -0.390625z" fill-rule="nonzero"/></g></svg>